<?xml version="1.0" standalone="no"?>
<!DOCTYPE svg PUBLIC "-//W3C//DTD SVG 20010904//EN"
 "http://www.w3.org/TR/2001/REC-SVG-20010904/DTD/svg10.dtd">
<svg version="1.0" xmlns="http://www.w3.org/2000/svg"
 width="1001.000000pt" height="583.000000pt" viewBox="0 0 1001.000000 583.000000"
 preserveAspectRatio="xMidYMid meet">

<g transform="translate(0.000000,583.000000) scale(0.100000,-0.100000)"
fill="#000000" stroke="none">
<path d="M92 5804 c-44 -23 -69 -61 -83 -125 -9 -41 -11 -738 -6 -2806 5
-2683 5 -2754 24 -2785 29 -51 77 -78 136 -78 42 0 66 9 156 59 58 32 201 109
316 171 341 182 416 227 1405 833 1070 656 1652 1018 1647 1024 -6 5 -577
-269 -1756 -843 -904 -440 -1303 -644 -1572 -803 l-36 -21 4 2467 c2 1358 5
2473 6 2479 1 6 2128 -1198 4727 -2674 4471 -2541 4728 -2685 4780 -2689 71
-5 116 18 147 77 l23 43 0 2782 0 2782 -23 43 c-27 52 -75 80 -135 80 -38 0
-91 -26 -380 -181 -186 -100 -386 -210 -447 -244 -205 -116 -2679 -1638 -2710
-1667 -24 -23 463 210 1985 952 834 405 816 397 1157 586 122 68 224 124 227
124 3 0 6 -1114 6 -2475 0 -1361 -1 -2475 -3 -2475 -2 0 -2132 1209 -4733
2687 -4297 2441 -4734 2687 -4779 2690 -33 2 -61 -2 -83 -13z"/>
</g>
</svg>
